<svg height="512pt" viewBox="0 0 512 512.00004" width="512pt" xmlns="http://www.w3.org/2000/svg"><path d="m309.8125 11.933594c-30.367188-14.167969-65.09375-15.785156-96.648438-4.507813l5.710938 16.085938c46.910156-16.65625 99.171875-.019531 127.824219 40.691406l13.964843-9.824219c-12.929687-18.363281-30.46875-33.003906-50.851562-42.445312zm0 0"/><path d="m376.585938 85.226562c-1.835938-5.171874-4-10.21875-6.484376-15.113281l-15.210937 7.679688c2.148437 4.246093 4.023437 8.628906 5.613281 13.117187zm0 0"/><path d="m477.816406 435.207031v-290.101562c0-4.710938-3.820312-8.53125-8.53125-8.53125h-120.054687c.257812-2.832031.597656-5.648438.597656-8.53125 0-51.835938-42.019531-93.859375-93.855469-93.859375-51.835937 0-93.855468 42.023437-93.855468 93.859375 0 2.882812.339843 5.699219.597656 8.53125h-120.054688c-4.710937 0-8.53125 3.820312-8.53125 8.53125v324.234375c0 4.710937 3.820313 8.53125 8.53125 8.53125h426.625c4.710938 0 8.53125-3.820313 8.53125-8.53125zm-17.066406-281.566406v273.035156h-170.648438c-2.261718 0-4.433593.898438-6.03125 2.5l-19.566406 19.566407v-150.050782h3.738282c11.746093 0 21.988281-7.992187 24.839843-19.386718l3.683594-14.746094h10.402344c4.710937 0 8.53125-3.820313 8.53125-8.53125v-34.128906c0-4.714844-3.820313-8.535157-8.53125-8.535157h-8.53125v-1.703125c23.25-11.882812 40.503906-32.902344 47.625-58.023437h114.488281zm-247.441406 93.855469v-17.066406h85.328125v17.066406zm65.863281 17.0625-2.644531 10.597656c-.949219 3.804688-4.367188 6.472656-8.285156 6.46875h-24.539063c-3.917969.003906-7.332031-2.660156-8.285156-6.457031l-2.644531-10.609375zm-23.199219-213.308594c42.410156.027344 76.769532 34.429688 76.742188 76.84375-.023438 30.492188-18.085938 58.085938-46.027344 70.304688-3.105469 1.359374-5.117188 4.425781-5.117188 7.816406v7.148437h-17.066406v-47.660156l31.628906-31.628906-12.0625-12.066407-28.097656 28.097657-28.097656-28.097657-12.0625 12.066407 31.628906 31.628906v47.660156h-17.066406v-7.148437c0-3.390625-2.011719-6.457032-5.117188-7.816406-38.859374-16.992188-56.585937-62.265626-39.589843-101.125 12.214843-27.941407 39.808593-46.003907 70.304687-46.023438zm-204.777344 102.390625h114.488282c7.121094 25.117187 24.375 46.140625 47.625 58.019531v1.707032h-8.53125c-4.710938 0-8.53125 3.820312-8.53125 8.53125v34.128906c0 4.710937 3.820312 8.53125 8.53125 8.53125h10.402344l3.683593 14.753906c2.855469 11.390625 13.09375 19.382812 24.839844 19.378906h3.738281v150.050782l-19.566406-19.566407c-1.601562-1.597656-3.769531-2.5-6.03125-2.5h-170.648438zm0 307.164063v-17.0625h167.117188l17.0625 17.0625zm409.554688 0h-184.179688l17.066407-17.0625h167.113281zm0 0"/><path d="m76.792969 247.496094h93.855469v17.0625h-93.855469zm0 0"/><path d="m76.792969 281.625h119.453125v17.066406h-119.453125zm0 0"/><path d="m76.792969 315.753906h145.050781v17.066406h-145.050781zm0 0"/><path d="m76.792969 349.882812h145.050781v17.066407h-145.050781zm0 0"/><path d="m76.792969 384.015625h145.050781v17.0625h-145.050781zm0 0"/><path d="m76.792969 213.367188h17.0625v17.0625h-17.0625zm0 0"/><path d="m110.921875 213.367188h59.726563v17.0625h-59.726563zm0 0"/><path d="m341.296875 247.496094h93.855469v17.0625h-93.855469zm0 0"/><path d="m315.699219 281.625h119.453125v17.066406h-119.453125zm0 0"/><path d="m290.101562 315.753906h145.050782v17.066406h-145.050782zm0 0"/><path d="m290.101562 349.882812h145.050782v17.066407h-145.050782zm0 0"/><path d="m290.101562 384.015625h145.050782v17.0625h-145.050782zm0 0"/><path d="m418.089844 213.367188h17.0625v17.0625h-17.0625zm0 0"/><path d="m341.296875 213.367188h59.726563v17.0625h-59.726563zm0 0"/><path d="m34.128906 512h162.117188v-17.066406h-162.117188c-9.421875 0-17.0625-7.640625-17.0625-17.0625v-76.792969h-17.066406v76.792969c0 18.847656 15.28125 34.128906 34.128906 34.128906zm0 0"/><path d="m0 366.949219h17.066406v17.066406h-17.066406zm0 0"/><path d="m494.878906 213.367188h17.066406v179.179687h-17.066406zm0 0"/></svg>